<?xml version="1.0" standalone="no"?>
<!DOCTYPE svg PUBLIC "-//W3C//DTD SVG 20010904//EN"
 "http://www.w3.org/TR/2001/REC-SVG-20010904/DTD/svg10.dtd">
<svg version="1.0" xmlns="http://www.w3.org/2000/svg"
 width="447.000000pt" height="437.000000pt" viewBox="0 0 447.000000 437.000000"
 preserveAspectRatio="xMidYMid meet">

<g transform="translate(0.000000,437.000000) scale(0.100000,-0.100000)"
fill="#000000" stroke="none">
<path d="M2085 4320 c-778 -63 -1448 -523 -1786 -1225 -145 -301 -209 -587
-209 -928 -1 -360 65 -650 219 -962 211 -431 539 -761 976 -981 181 -91 346
-149 546 -191 130 -27 143 -28 424 -28 277 1 296 2 420 28 241 51 537 170 732
294 252 160 488 390 655 640 80 119 198 361 246 508 157 470 145 993 -31 1455
-282 737 -938 1263 -1717 1374 -136 19 -348 26 -475 16z m379 -159 c4 -5 -3
-7 -14 -4 -23 6 -26 13 -6 13 8 0 17 -4 20 -9z m-470 -10 c4 -5 -3 -7 -14 -4
-14 4 -22 -1 -29 -18 -9 -23 -10 -23 -10 -2 -1 27 40 46 53 24z m232 -6 c8 10
14 14 14 8 0 -7 -5 -15 -10 -18 -8 -5 -7 -11 1 -21 6 -7 15 -12 18 -9 4 2 8
-2 8 -10 0 -8 -2 -13 -5 -10 -3 2 -14 0 -26 -6 -19 -9 -20 -9 -3 4 15 13 15
16 3 27 -19 15 -39 3 -31 -19 5 -12 4 -13 -6 -4 -9 9 -9 15 0 26 6 8 9 23 5
33 -5 18 -5 18 7 0 12 -19 12 -19 25 -1z m351 -27 c-3 -7 -5 -2 -5 12 0 14 2
19 5 13 2 -7 2 -19 0 -25z m-738 -15 c-1 -23 -2 -24 -6 -6 -2 12 -12 24 -21
26 -12 3 -10 5 6 6 18 1 22 -4 21 -26z m618 -20 c-3 -10 -5 -2 -5 17 0 19 2
27 5 18 2 -10 2 -26 0 -35z m208 -7 c0 -24 -3 -42 -7 -39 -10 5 -10 45 -2 67
9 23 10 21 9 -28z m63 19 c-3 -3 -9 2 -12 12 -6 14 -5 15 5 6 7 -7 10 -15 7
-18z m-725 8 c-7 -2 -21 -2 -30 0 -10 3 -4 5 12 5 17 0 24 -2 18 -5z m564 -35
c-3 -7 -5 -2 -5 12 0 14 2 19 5 13 2 -7 2 -19 0 -25z m-890 -16 c1 -28 -1 -32
-7 -17 -11 26 -12 55 -2 55 4 0 8 -17 9 -38z m51 14 c-1 -13 4 -32 12 -42 14
-18 14 -18 -5 -3 -11 9 -27 19 -35 22 -12 4 -11 6 3 6 10 1 17 9 17 21 0 11 3
20 6 20 3 0 4 -11 2 -24z m1132 -9 c-23 -22 -60 -26 -60 -7 0 5 8 6 18 4 9 -3
26 2 37 10 30 23 33 19 5 -7z m-1013 -9 c-3 -8 -6 -5 -6 6 -1 11 2 17 5 13 3
-3 4 -12 1 -19z m-288 -1 c-2 -1 -15 -11 -28 -22 l-24 -20 12 23 c6 12 19 22
28 22 9 0 14 -1 12 -3z m1421 -7 c12 -7 10 -9 -8 -7 -12 0 -22 5 -22 9 0 11
12 10 30 -2z m-1380 -50 c0 -21 -20 -40 -42 -40 -17 0 -45 37 -35 47 3 2 8 -5
12 -16 8 -25 43 -28 52 -5 3 8 0 27 -6 42 -11 25 -10 26 4 8 8 -11 15 -27 15
-36z m1247 8 c-3 -8 -6 -5 -6 6 -1 11 2 17 5 13 3 -3 4 -12 1 -19z m108 -6
c-23 -5 -25 -31 -4 -37 11 -4 18 -9 16 -12 -3 -2 -14 0 -26 6 -17 10 -18 15
-10 41 9 23 13 27 24 17 11 -10 11 -13 0 -15z m-1508 -27 c1 -14 0 -15 -3 -3
-3 9 -15 19 -27 22 -18 4 -18 4 3 3 17 -1 25 -8 27 -22z m1689 4 c3 -5 -2 -6
-10 -3 -10 4 -21 -7 -35 -33 -11 -21 -20 -34 -21 -30 0 4 7 21 15 38 9 16 13
34 10 38 -3 5 4 7 15 4 11 -3 23 -9 26 -14z m-1750 2 c-3 -4 1 -17 9 -27 8
-10 14 -26 14 -34 0 -8 -8 1 -18 20 -17 31 -19 50 -5 50 3 0 3 -4 0 -9z m-90
-53 c4 -6 3 -8 -3 -5 -6 4 -18 0 -29 -7 -16 -12 -17 -16 -4 -32 13 -18 13 -18
-6 -1 -19 18 -19 19 5 38 27 22 28 22 37 7z m1189 -9 c722 -92 1331 -647 1489
-1359 107 -483 13 -975 -265 -1387 -91 -135 -302 -349 -439 -445 -650 -456
-1503 -429 -2122 66 -326 261 -546 624 -629 1033 -31 154 -38 447 -14 598 31
202 80 355 167 530 338 679 1056 1060 1813 964z m755 4 c0 -3 -7 -3 -15 0 -25
10 -28 -13 -5 -38 23 -25 22 -55 -3 -55 -22 0 -50 26 -44 41 4 11 6 10 6 -2 1
-21 31 -33 45 -19 6 6 2 18 -14 35 -19 20 -21 27 -11 39 11 13 41 12 41 -1z
m17 -25 c-3 -8 -6 -5 -6 6 -1 11 2 17 5 13 3 -3 4 -12 1 -19z m-1933 -6 c2 -4
-7 -8 -22 -9 -24 -2 -24 -1 -7 7 11 5 21 9 22 9 1 1 4 -3 7 -7z m16 -26 c0 -2
-8 -10 -17 -17 -16 -13 -17 -12 -4 4 13 16 21 21 21 13z m-45 -34 c-3 -3 -11
0 -18 7 -9 10 -8 11 6 5 10 -3 15 -9 12 -12z m1931 -3334 c4 -6 3 -8 -3 -5
-14 9 -48 -17 -40 -31 4 -5 17 -8 30 -6 20 4 20 4 2 -5 -14 -6 -24 -5 -35 6
-13 13 -12 16 9 34 27 22 28 22 37 7z m-1901 -9 c11 -16 1 -19 -13 -3 -7 8 -8
14 -3 14 5 0 13 -5 16 -11z m-15 -60 c0 -11 -7 -22 -15 -26 -17 -6 -55 23 -55
41 0 6 7 0 16 -12 8 -12 22 -22 30 -22 20 0 18 30 -3 47 -16 13 -16 13 5 3 12
-6 22 -20 22 -31z m1780 6 c-7 -8 -20 -15 -29 -15 -11 1 -8 5 9 15 32 18 35
18 20 0z m-1675 -11 c-9 -9 -13 -24 -10 -32 3 -9 3 -13 -1 -9 -4 4 -13 -1 -21
-11 -8 -9 -5 2 7 26 11 23 25 42 31 42 6 0 3 -7 -6 -16z m1845 6 c0 -17 -35
-30 -51 -18 -11 8 -11 9 3 4 10 -3 24 1 30 9 16 17 18 18 18 5z m-151 -75 c0
-5 -6 1 -14 15 -8 14 -14 30 -14 35 0 6 6 -1 14 -15 8 -14 14 -29 14 -35z
m-1654 25 c-3 -5 -14 -10 -23 -9 -14 0 -13 2 3 9 27 11 27 11 20 0z m138 -21
c16 -25 -10 -79 -37 -79 -23 0 -46 17 -46 35 0 5 5 2 11 -7 23 -40 83 2 66 46
-9 23 -44 20 -52 -5 -4 -11 -9 -18 -12 -16 -2 3 1 15 7 27 13 25 47 24 63 -1z
m1357 17 c0 -2 -7 -7 -16 -10 -8 -3 -12 -2 -9 4 6 10 25 14 25 6z m8 -39 c14
6 15 5 2 -9 -15 -16 -31 -7 -29 17 0 6 3 5 5 -2 3 -7 13 -9 22 -6z m-1231 -70
c-13 -26 -15 -26 -20 -7 -3 13 0 20 9 20 8 0 15 10 15 23 1 13 3 16 6 6 2 -8
-3 -28 -10 -42z m1137 3 l21 -25 -25 22 c-19 16 -29 19 -42 12 -12 -7 -18 -7
-18 1 0 5 7 10 15 10 8 0 15 8 16 18 0 13 2 14 6 2 3 -8 15 -26 27 -40z
m-1184 12 c-6 -2 -10 -11 -10 -20 0 -8 -2 -13 -5 -10 -4 3 -3 18 1 33 5 20 9
23 15 13 5 -7 4 -14 -1 -16z m1325 18 c-3 -5 -12 -10 -18 -10 -7 0 -6 4 3 10
19 12 23 12 15 0z m-1156 -22 c0 -16 -2 -18 -6 -8 -3 8 -11 18 -17 22 -7 5 -4
8 7 8 11 0 17 -7 16 -22z m865 13 c3 -4 -6 -6 -19 -3 -14 2 -25 6 -25 8 0 8
39 4 44 -5z m251 -1 c3 -5 1 -10 -4 -10 -6 0 -11 5 -11 10 0 6 2 10 4 10 3 0
8 -4 11 -10z m-308 -37 c-3 -10 -5 -4 -5 12 0 17 2 24 5 18 2 -7 2 -21 0 -30z
m-653 8 c3 -4 -5 -6 -18 -4 -37 7 -40 -14 -6 -32 36 -19 37 -49 2 -51 -19 -1
-19 -1 -2 3 29 6 25 25 -10 45 -20 11 -28 22 -24 32 6 17 49 22 58 7z m563
-23 c-3 -7 -5 -2 -5 12 0 14 2 19 5 13 2 -7 2 -19 0 -25z m-108 -10 c-2 -30
-2 -30 -6 -6 -2 15 -12 29 -21 31 -12 3 -10 5 6 6 19 1 22 -4 21 -31z m-622 0
c-3 -8 -6 -5 -6 6 -1 11 2 17 5 13 3 -3 4 -12 1 -19z m366 7 c-3 -9 -8 -14
-10 -11 -3 3 -2 9 2 15 9 16 15 13 8 -4z m29 -17 c-9 -9 -8 -16 4 -29 10 -11
12 -19 5 -24 -6 -3 -11 1 -11 9 0 24 -22 31 -37 11 -7 -11 -13 -14 -13 -7 0 6
11 19 26 28 16 11 23 23 19 33 -5 13 -4 14 6 4 10 -10 10 -16 1 -25z m457 -8
c9 0 23 6 31 13 12 10 12 9 0 -6 -15 -20 -52 -19 -56 1 -1 7 0 8 3 2 2 -5 12
-10 22 -10z m-112 -22 c-3 -7 -5 -2 -5 12 0 14 2 19 5 13 2 -7 2 -19 0 -25z"/>
<path d="M1960 3838 c-230 -39 -473 -137 -673 -271 -118 -78 -338 -297 -430
-427 -127 -180 -228 -416 -279 -650 -19 -92 -22 -133 -22 -330 0 -197 3 -238
22 -330 50 -231 136 -434 263 -627 101 -151 303 -353 454 -452 197 -130 392
-214 615 -264 83 -18 127 -21 340 -21 217 0 256 2 344 22 529 118 966 459
1192 929 130 270 191 597 165 878 -21 223 -64 388 -149 570 -247 532 -717 888
-1294 980 -141 22 -401 19 -548 -7z m640 -41 c154 -36 251 -71 385 -137 190
-93 338 -201 483 -355 261 -274 430 -659 449 -1022 l6 -103 -290 0 -290 0 -12
104 c-21 186 -78 341 -180 489 -134 194 -359 361 -571 426 -114 35 -192 45
-335 44 -213 -1 -368 -41 -539 -142 -263 -154 -458 -421 -517 -705 -10 -50
-19 -109 -19 -131 0 -22 -3 -50 -6 -62 l-6 -23 -291 0 -290 0 7 98 c34 464
256 890 615 1179 238 191 500 308 806 359 55 9 145 12 285 10 175 -4 220 -8
310 -29z m-131 -602 c167 -35 310 -104 443 -214 198 -163 321 -364 374 -607
22 -104 23 -332 1 -429 -71 -316 -273 -579 -558 -725 -277 -142 -637 -150
-915 -20 -114 53 -195 110 -297 209 -230 223 -327 472 -315 804 6 164 31 266
98 402 60 123 122 205 234 313 171 164 355 251 596 282 84 11 248 4 339 -15z
m-1459 -1405 c-34 -45 -60 -84 -57 -86 3 -3 47 -16 97 -29 50 -13 94 -26 97
-29 18 -18 -17 -15 -112 10 l-107 27 -66 -21 c-36 -12 -68 -20 -70 -17 -10 10
12 23 66 40 57 17 62 21 128 110 41 55 73 90 78 85 5 -6 -17 -42 -54 -90z
m2555 49 c69 -17 125 -36 125 -41 0 -6 -10 -8 -22 -4 -13 3 -74 18 -135 32
-62 15 -113 31 -113 35 0 13 10 12 145 -22z m195 -54 c0 -8 -7 -15 -15 -15
-16 0 -20 12 -8 23 11 12 23 8 23 -8z m-199 -307 c56 -31 73 -48 48 -48 -6 0
-35 14 -65 30 -53 31 -53 31 -136 20 -105 -13 -155 -13 -142 0 5 5 52 14 104
20 52 6 96 12 98 15 2 2 -17 42 -43 89 -25 47 -43 91 -39 97 4 7 29 -31 61
-89 51 -96 58 -103 114 -134z m-2294 -38 c-10 -37 -182 -299 -191 -290 -4 4 6
29 24 55 l32 47 -38 55 c-22 31 -42 60 -45 65 -4 6 -29 3 -63 -5 -31 -8 -56
-13 -56 -11 0 2 0 7 0 12 1 6 292 87 329 91 9 1 12 -6 8 -19z m2084 -277 c18
-37 19 -45 6 -75 -16 -39 -67 -85 -103 -94 -13 -4 -38 -1 -54 6 -38 16 -209
192 -191 198 6 2 46 -33 88 -77 94 -102 120 -117 166 -97 43 17 77 61 77 96 0
31 -48 96 -128 174 -28 27 -48 54 -45 59 9 14 161 -143 184 -190z m-1895 52
c-3 -9 -42 -64 -86 -124 -44 -60 -80 -111 -80 -114 0 -3 29 -27 65 -53 60 -44
85 -74 50 -60 -21 8 -144 100 -145 108 0 12 184 258 194 258 4 0 6 -7 2 -15z
m1419 -159 c29 -29 42 -73 28 -95 -8 -13 -4 -18 20 -26 20 -6 37 -23 50 -48
18 -36 19 -41 4 -71 -11 -25 -33 -41 -91 -69 -43 -20 -80 -37 -84 -37 -7 0
-137 277 -137 292 0 11 144 78 168 78 10 0 29 -11 42 -24z m-1125 -19 c0 -11
-62 -188 -95 -268 -5 -13 10 -22 74 -45 45 -16 81 -32 81 -36 0 -14 -22 -9
-106 23 l-82 31 23 62 c12 33 38 103 56 153 31 85 49 114 49 80z m487 -253
c58 -178 58 -177 41 -172 -6 2 -19 26 -28 54 -16 47 -19 49 -61 56 -99 15
-106 13 -134 -42 -14 -27 -30 -50 -35 -50 -6 0 -10 2 -10 4 0 2 34 74 75 161
47 98 80 155 87 153 7 -3 36 -76 65 -164z"/>
<path d="M2086 3523 c-31 -92 -54 -169 -52 -171 11 -10 25 12 36 57 l11 48 52
7 c102 12 104 11 132 -44 14 -27 30 -50 35 -50 6 0 10 2 10 4 0 13 -153 316
-160 316 -4 0 -33 -75 -64 -167z m139 -32 c-3 -3 -35 -7 -70 -9 l-64 -4 31 92
31 92 38 -82 c22 -46 37 -86 34 -89z"/>
<path d="M2726 3456 c-36 -79 -66 -146 -66 -150 0 -12 144 -76 173 -76 40 0
77 43 77 89 0 21 -5 42 -11 48 -7 7 -1 14 19 22 16 7 34 24 41 37 30 67 1 102
-130 157 l-37 15 -66 -142z m148 85 c73 -33 88 -59 64 -107 -20 -41 -46 -45
-113 -17 -33 14 -63 28 -68 32 -6 6 39 121 48 121 2 0 33 -13 69 -29z m-72
-135 c30 -14 62 -32 71 -41 37 -36 5 -115 -46 -115 -12 0 -50 13 -84 29 l-62
30 27 60 c15 34 30 61 33 61 4 0 31 -11 61 -24z"/>
<path d="M1636 3548 c13 -44 102 -280 108 -285 7 -7 176 58 176 68 0 12 5 13
-86 -20 l-80 -29 -53 144 c-29 79 -58 144 -63 144 -5 0 -6 -10 -2 -22z"/>
<path d="M1270 3339 c0 -15 182 -259 192 -259 13 0 148 103 148 113 0 11 -25
-4 -89 -52 -30 -23 -58 -38 -62 -34 -3 5 -46 61 -93 126 -48 64 -89 117 -92
117 -2 0 -4 -5 -4 -11z"/>
<path d="M3131 3265 c-45 -47 -86 -97 -92 -112 -15 -39 -3 -85 29 -115 53 -50
92 -59 141 -33 35 18 186 183 177 192 -4 4 -46 -34 -94 -85 -73 -78 -93 -94
-124 -99 -34 -5 -42 -2 -78 35 -64 63 -54 95 64 212 42 41 76 78 76 82 0 20
-23 2 -99 -77z"/>
<path d="M1010 3051 c0 -17 184 -303 188 -292 2 6 -9 32 -24 59 l-27 49 43 59
c24 32 44 60 44 61 1 1 27 -5 59 -12 33 -8 59 -9 63 -4 3 5 3 9 0 9 -3 0 -74
18 -158 40 -160 42 -188 46 -188 31z m115 -32 c47 -12 85 -25 85 -28 0 -9 -68
-106 -74 -106 -3 0 -27 35 -55 78 -28 42 -48 77 -45 77 2 0 43 -10 89 -21z"/>
<path d="M3498 2927 c-64 -122 -74 -135 -133 -164 -30 -15 -55 -31 -55 -35 0
-14 19 -8 73 22 52 29 54 29 137 20 107 -12 140 -12 140 -1 0 5 -40 13 -89 16
-49 4 -94 11 -101 15 -9 6 0 31 35 95 27 50 44 90 39 95 -5 5 -25 -21 -46 -63z"/>
<path d="M850 2779 c0 -7 27 -48 60 -90 l60 -78 -53 -15 c-28 -8 -73 -20 -99
-27 -27 -6 -48 -15 -48 -20 0 -12 -4 -13 116 17 l104 27 56 -22 c62 -23 74
-25 74 -12 0 5 -28 19 -63 30 -60 20 -66 26 -126 106 -66 89 -81 105 -81 84z"/>
<path d="M3622 2516 c-111 -30 -154 -46 -125 -46 11 0 212 46 246 56 16 5 25
25 10 23 -5 0 -63 -15 -131 -33z"/>
<path d="M3420 2460 c0 -5 7 -10 15 -10 8 0 15 5 15 10 0 6 -7 10 -15 10 -8 0
-15 -4 -15 -10z"/>
<path d="M2490 3108 c-27 -7 -155 -130 -591 -566 -369 -369 -564 -571 -578
-599 -25 -49 -27 -84 -7 -121 8 -15 144 -156 303 -313 321 -320 329 -325 405
-291 32 15 190 167 594 573 304 305 559 568 568 586 9 18 16 51 16 75 0 42 -1
43 -297 341 -261 262 -338 330 -370 326 -4 0 -24 -5 -43 -11z m322 -385 c153
-153 278 -282 278 -288 0 -13 -1102 -1115 -1115 -1115 -6 0 -135 125 -288 278
l-277 277 16 25 c21 33 1086 1098 1099 1099 5 1 135 -124 287 -276z"/>
<path d="M2461 2844 c-25 -32 -25 -33 -5 -62 31 -45 110 -14 97 39 -6 21 -40
49 -59 49 -7 0 -22 -12 -33 -26z"/>
<path d="M2596 2714 c-32 -31 -10 -94 32 -94 29 0 62 30 62 55 0 30 -25 55
-55 55 -13 0 -31 -7 -39 -16z"/>
<path d="M2731 2581 c-25 -25 -26 -39 -5 -69 17 -24 62 -30 82 -10 13 13 16
57 4 75 -15 24 -59 26 -81 4z"/>
<path d="M2868 2449 c-28 -16 -23 -65 7 -85 33 -21 72 -6 81 31 12 48 -42 81
-88 54z"/>
<path d="M2122 2294 c-26 -18 -29 -56 -6 -78 9 -9 32 -16 55 -16 21 0 39 -3
39 -8 0 -4 -43 -50 -95 -102 -98 -97 -111 -123 -79 -154 34 -34 63 -20 165 81
l99 97 0 -46 c0 -51 15 -70 57 -70 45 0 53 23 53 158 0 156 2 154 -155 154
-84 0 -116 -4 -133 -16z"/>
<path d="M2145 3089 c-307 -32 -591 -232 -730 -514 -68 -138 -86 -215 -92
-385 l-5 -145 35 33 c34 33 34 34 40 140 7 131 25 200 82 319 89 183 252 341
431 416 94 40 161 56 284 68 103 9 118 13 143 37 l28 27 -43 7 c-52 8 -71 8
-173 -3z"/>
<path d="M3147 2242 c-23 -24 -27 -37 -27 -84 0 -83 -27 -220 -60 -306 -47
-122 -98 -200 -195 -298 -163 -165 -330 -239 -587 -259 -77 -6 -89 -10 -113
-35 l-27 -28 74 -7 c139 -13 359 38 487 111 168 97 309 243 391 404 59 115
100 293 100 429 0 97 -8 110 -43 73z"/>
<path d="M1138 1408 l-77 -20 37 -54 c20 -29 40 -53 44 -54 5 0 52 71 92 138
9 15 1 14 -96 -10z"/>
<path d="M2747 1025 c-26 -12 -50 -25 -53 -27 -5 -5 45 -118 52 -118 3 0 31
13 64 30 63 32 85 58 75 90 -17 54 -61 62 -138 25z"/>
<path d="M2812 890 l-63 -29 31 -61 c17 -33 32 -60 34 -60 14 0 105 46 124 63
29 26 28 68 -1 95 -30 28 -48 27 -125 -8z"/>
<path d="M2127 834 c-21 -42 -37 -78 -35 -79 2 -1 33 -6 70 -10 l67 -6 -26 78
c-14 43 -29 81 -32 85 -4 4 -24 -26 -44 -68z"/>
</g>
</svg>
