<?xml version="1.0" standalone="no"?>
<!DOCTYPE svg PUBLIC "-//W3C//DTD SVG 20010904//EN"
 "http://www.w3.org/TR/2001/REC-SVG-20010904/DTD/svg10.dtd">
<svg version="1.0" xmlns="http://www.w3.org/2000/svg"
 width="114.000000pt" height="114.000000pt" viewBox="0 0 114.000000 114.000000"
 preserveAspectRatio="xMidYMid meet">

<g transform="translate(0.000000,114.000000) scale(0.100000,-0.100000)"
fill="#000000" stroke="none">
<path d="M454 1116 c-210 -48 -385 -225 -429 -433 -20 -93 -19 -166 5 -258 75
-293 366 -475 662 -414 153 32 321 162 387 302 152 320 -9 687 -348 793 -68
21 -205 26 -277 10z m317 -138 c95 -47 177 -130 222 -225 27 -59 32 -81 35
-168 3 -83 0 -111 -18 -164 -54 -160 -173 -268 -337 -307 -307 -72 -601 202
-553 513 20 133 109 266 219 331 87 51 136 63 252 60 99 -3 110 -6 180 -40z"/>
<path d="M553 1003 c15 -2 37 -2 50 0 12 2 0 4 -28 4 -27 0 -38 -2 -22 -4z"/>
<path d="M478 993 c7 -3 16 -2 19 1 4 3 -2 6 -13 5 -11 0 -14 -3 -6 -6z"/>
<path d="M658 993 c7 -3 16 -2 19 1 4 3 -2 6 -13 5 -11 0 -14 -3 -6 -6z"/>
<path d="M330 933 c-37 -24 -89 -74 -113 -108 -12 -16 6 -3 38 31 33 33 71 68
85 77 14 9 23 16 20 16 -3 1 -17 -6 -30 -16z"/>
<path d="M810 933 c14 -10 45 -36 70 -58 l45 -39 -37 40 c-21 22 -52 47 -70
57 -32 17 -32 17 -8 0z"/>
<path d="M563 843 c9 -2 23 -2 30 0 6 3 -1 5 -18 5 -16 0 -22 -2 -12 -5z"/>
<path d="M498 833 c7 -3 16 -2 19 1 4 3 -2 6 -13 5 -11 0 -14 -3 -6 -6z"/>
<path d="M645 830 c27 -12 43 -12 25 0 -8 5 -22 9 -30 9 -10 0 -8 -3 5 -9z"/>
<path d="M444 814 c-18 -14 -18 -14 6 -3 31 14 36 19 24 19 -6 0 -19 -7 -30
-16z"/>
<path d="M935 806 c10 -14 19 -26 22 -26 7 0 -17 39 -28 46 -6 3 -3 -5 6 -20z"/>
<path d="M497 794 c-63 -20 -128 -84 -150 -149 -19 -54 -23 -110 -7 -100 6 3
10 21 10 38 1 100 113 207 217 207 12 0 25 5 28 10 9 14 -42 11 -98 -6z"/>
<path d="M482 657 c-83 -84 -152 -159 -152 -167 0 -23 152 -170 176 -170 26 0
314 289 314 316 0 23 -148 174 -170 174 -9 0 -84 -69 -168 -153z m240 56 c38
-37 68 -72 68 -78 0 -13 -272 -285 -285 -285 -6 0 -42 32 -80 70 l-70 70 145
145 c80 80 147 145 150 145 2 0 35 -30 72 -67z"/>
<path d="M630 735 c0 -8 5 -15 10 -15 6 0 10 7 10 15 0 8 -4 15 -10 15 -5 0
-10 -7 -10 -15z"/>
<path d="M662 699 c2 -6 8 -10 13 -10 5 0 11 4 13 10 2 6 -4 11 -13 11 -9 0
-15 -5 -13 -11z"/>
<path d="M700 665 c0 -8 5 -15 10 -15 6 0 10 7 10 15 0 8 -4 15 -10 15 -5 0
-10 -7 -10 -15z"/>
<path d="M732 629 c2 -6 8 -10 13 -10 5 0 11 4 13 10 2 6 -4 11 -13 11 -9 0
-15 -5 -13 -11z"/>
<path d="M540 586 c0 -9 5 -16 12 -16 6 0 -1 -13 -16 -29 -35 -36 -16 -54 20
-20 21 20 27 21 34 9 14 -22 32 2 28 36 -3 26 -8 29 -40 32 -29 2 -38 0 -38
-12z"/>
<path d="M375 758 l-40 -43 43 40 c23 21 42 40 42 42 0 8 -9 0 -45 -39z"/>
<path d="M773 752 c26 -30 52 -72 59 -94 7 -23 14 -36 16 -29 7 21 -37 96 -80
136 l-42 40 47 -53z"/>
<path d="M180 769 c-7 -11 -10 -23 -7 -25 2 -2 9 7 15 21 14 30 7 33 -8 4z"/>
<path d="M156 715 c-3 -9 -6 -22 -5 -28 0 -7 5 -1 10 12 5 13 8 26 5 28 -2 2
-6 -3 -10 -12z"/>
<path d="M320 689 c-7 -11 -10 -23 -7 -25 2 -2 9 7 15 21 14 30 7 33 -8 4z"/>
<path d="M141 654 c0 -11 3 -14 6 -6 3 7 2 16 -1 19 -3 4 -6 -2 -5 -13z"/>
<path d="M1002 650 c0 -14 2 -19 5 -12 2 6 2 18 0 25 -3 6 -5 1 -5 -13z"/>
<path d="M301 634 c0 -11 3 -14 6 -6 3 7 2 16 -1 19 -3 4 -6 -2 -5 -13z"/>
<path d="M131 579 c-3 -118 40 -231 124 -318 141 -148 345 -183 530 -89 133
68 239 249 234 401 -1 23 -4 32 -6 20 -4 -21 -10 -23 -79 -23 -63 0 -74 3 -75
18 -1 9 -5 -11 -10 -44 -19 -151 -132 -255 -274 -253 -150 2 -256 101 -275
257 -4 37 -8 57 -9 45 -1 -22 -5 -23 -75 -23 -74 0 -75 0 -79 28 -3 17 -5 10
-6 -19z m784 -197 c-3 -3 -11 0 -18 7 -9 10 -8 11 6 5 10 -3 15 -9 12 -12z
m-618 -30 c15 12 15 11 3 -9 -13 -20 -15 -20 -27 -5 -7 9 -12 22 -12 27 0 6 4
2 10 -8 9 -15 13 -16 26 -5z m543 -79 c11 3 18 1 14 -4 -10 -17 -41 -9 -65 19
l-24 27 27 -24 c17 -15 34 -22 48 -18z m-507 -8 c-3 -9 -8 -14 -10 -11 -3 3
-2 9 2 15 9 16 15 13 8 -4z m404 9 c-3 -3 -12 -4 -19 -1 -8 3 -5 6 6 6 11 1
17 -2 13 -5z m18 -34 c3 -6 -1 -7 -9 -4 -18 7 -21 14 -7 14 6 0 13 -4 16 -10z
m-47 -25 c-3 -3 -9 2 -12 12 -6 14 -5 15 5 6 7 -7 10 -15 7 -18z m-168 -19 c0
-3 -4 -8 -10 -11 -5 -3 -10 -1 -10 4 0 6 5 11 10 11 6 0 10 -2 10 -4z m38 -21
c-3 -3 -9 2 -12 12 -6 14 -5 15 5 6 7 -7 10 -15 7 -18z"/>
<path d="M808 580 c-4 -8 -9 -32 -12 -53 -13 -93 -97 -174 -192 -185 -56 -6
-68 -22 -17 -22 53 0 134 40 172 86 34 42 65 129 58 166 -2 17 -5 19 -9 8z"/>
</g>
</svg>
