<?xml version="1.0" standalone="no"?>
<!DOCTYPE svg PUBLIC "-//W3C//DTD SVG 20010904//EN"
 "http://www.w3.org/TR/2001/REC-SVG-20010904/DTD/svg10.dtd">
<svg version="1.0" xmlns="http://www.w3.org/2000/svg"
 width="72.000000pt" height="72.000000pt" viewBox="0 0 72.000000 72.000000"
 preserveAspectRatio="xMidYMid meet">

<g transform="translate(0.000000,72.000000) scale(0.100000,-0.100000)"
fill="#000000" stroke="none">
<path d="M251 694 c-93 -33 -161 -93 -208 -184 -25 -50 -28 -65 -28 -155 0
-95 2 -103 34 -163 60 -111 164 -180 286 -190 84 -6 154 12 224 59 96 64 161
184 161 295 0 61 -35 162 -74 215 -85 115 -261 170 -395 123z m235 -74 c181
-88 222 -334 78 -472 -81 -77 -213 -104 -308 -64 -131 55 -208 201 -176 334
43 182 242 281 406 202z"/>
<path d="M294 490 c-53 -27 -84 -80 -83 -146 1 -44 5 -53 47 -96 25 -27 51
-48 57 -48 6 0 55 45 110 100 l99 100 -54 55 c-30 30 -59 55 -64 55 -6 0 -50
-39 -98 -87 -72 -72 -88 -84 -88 -65 0 32 24 84 48 105 11 10 40 25 64 32 24
8 34 14 23 14 -11 1 -38 -8 -61 -19z m166 -45 l45 -45 -93 -93 -92 -92 -47 48
-48 47 90 90 c49 49 92 90 95 90 3 0 26 -20 50 -45z"/>
<path d="M343 366 c3 -7 0 -19 -6 -25 -6 -6 -8 -14 -4 -18 4 -4 12 -2 18 4 6
6 18 9 25 6 10 -4 14 3 14 21 0 21 -5 26 -26 26 -18 0 -25 -4 -21 -14z"/>
<path d="M502 328 c-14 -53 -55 -95 -113 -113 -24 -8 -35 -14 -24 -14 31 -1
101 34 119 60 17 25 40 98 33 105 -2 3 -9 -15 -15 -38z"/>
<path d="M85 323 c19 -106 88 -193 178 -228 57 -22 175 -17 225 9 77 40 140
130 150 213 l5 43 -51 0 c-50 0 -51 0 -58 -35 -17 -91 -107 -154 -199 -141
-64 10 -131 74 -141 134 l-7 42 -54 0 -55 0 7 -37z"/>
</g>
</svg>
