<?xml version="1.0" standalone="no"?>
<!DOCTYPE svg PUBLIC "-//W3C//DTD SVG 20010904//EN"
 "http://www.w3.org/TR/2001/REC-SVG-20010904/DTD/svg10.dtd">
<svg version="1.0" xmlns="http://www.w3.org/2000/svg"
 width="36.000000pt" height="36.000000pt" viewBox="0 0 36.000000 36.000000"
 preserveAspectRatio="xMidYMid meet">

<g transform="translate(0.000000,36.000000) scale(0.100000,-0.100000)"
fill="#000000" stroke="none">
<path d="M125 345 c-147 -52 -161 -257 -22 -324 24 -12 58 -21 75 -21 38 0 97
23 126 48 27 24 56 91 56 130 0 75 -61 152 -135 171 -53 13 -51 13 -100 -4z
m125 -43 c35 -17 63 -56 74 -103 5 -24 3 -25 -24 -21 -23 3 -30 0 -30 -13 0
-27 -55 -75 -86 -75 -28 0 -27 1 26 55 l54 55 -29 30 -29 30 -52 -51 c-32 -31
-54 -47 -58 -40 -4 6 -18 11 -32 11 -30 0 -31 21 -6 69 35 65 121 89 192 53z
m-35 -143 c-59 -60 -75 -67 -97 -39 l-19 23 53 54 52 53 25 -25 25 -25 -39
-41z m-18 -125 c-3 -3 -12 -4 -19 -1 -8 3 -5 6 6 6 11 1 17 -2 13 -5z"/>
<path d="M170 180 c0 -5 5 -10 10 -10 6 0 10 5 10 10 0 6 -4 10 -10 10 -5 0
-10 -4 -10 -10z"/>
<path d="M125 130 c10 -11 20 -20 23 -20 3 0 -3 9 -13 20 -10 11 -20 20 -23
20 -3 0 3 -9 13 -20z"/>
</g>
</svg>
